<?xml version="1.0" encoding="UTF-8" standalone="no"?>
<!DOCTYPE svg PUBLIC "-//W3C//DTD SVG 1.1//EN"
 "http://www.w3.org/Graphics/SVG/1.1/DTD/svg11.dtd">
<!-- Generated by graphviz version 2.26.3 (20100126.1600)
 -->
<!-- Title: example Pages: 1 -->
<svg width="351pt" height="286pt"
 viewBox="0.00 0.00 351.00 286.00" xmlns="http://www.w3.org/2000/svg" xmlns:xlink="http://www.w3.org/1999/xlink">
<g id="graph1" class="graph" transform="scale(1 1) rotate(0) translate(4 282)">
<title>example</title>
<polygon fill="white" stroke="white" points="-4,5 -4,-282 348,-282 348,5 -4,5"/>
<!-- t1 -->
<g id="node1" class="node"><title>t1</title>
<polygon fill="none" stroke="black" points="164,-278 110,-278 110,-242 164,-242 164,-278"/>
<text text-anchor="middle" x="137" y="-256.4" font-family="Times Roman,serif" font-size="14.00">t1</text>
</g>
<!-- p3 -->
<g id="node8" class="node"><title>p3</title>
<ellipse fill="none" stroke="black" cx="209" cy="-185" rx="27" ry="18.3848"/>
<text text-anchor="middle" x="209" y="-181.4" font-family="Times Roman,serif" font-size="14.00"> </text>
</g>
<!-- t1&#45;&gt;p3 -->
<g id="edge16" class="edge"><title>t1&#45;&gt;p3</title>
<path fill="none" stroke="black" d="M154.429,-241.845C164.074,-231.798 176.168,-219.2 186.518,-208.418"/>
<polygon fill="black" stroke="black" points="189.286,-210.589 193.687,-200.951 184.236,-205.741 189.286,-210.589"/>
</g>
<!-- p4 -->
<g id="node9" class="node"><title>p4</title>
<ellipse fill="none" stroke="black" cx="27" cy="-185" rx="27" ry="18.3848"/>
<text text-anchor="middle" x="27" y="-181.4" font-family="Times Roman,serif" font-size="14.00"> </text>
</g>
<!-- t1&#45;&gt;p4 -->
<g id="edge18" class="edge"><title>t1&#45;&gt;p4</title>
<path fill="none" stroke="black" d="M109.772,-247.978C96.6435,-241.645 80.9702,-233.272 68,-224 61.5166,-219.365 55.025,-213.751 49.1815,-208.244"/>
<polygon fill="black" stroke="black" points="51.2725,-205.394 41.6764,-200.903 46.3778,-210.398 51.2725,-205.394"/>
</g>
<!-- p5 -->
<g id="node10" class="node"><title>p5</title>
<ellipse fill="none" stroke="black" cx="137" cy="-185" rx="27" ry="18.3848"/>
<text text-anchor="middle" x="137" y="-181.4" font-family="Times Roman,serif" font-size="14.00"> </text>
</g>
<!-- t1&#45;&gt;p5 -->
<g id="edge20" class="edge"><title>t1&#45;&gt;p5</title>
<path fill="none" stroke="black" d="M137,-241.845C137,-233.403 137,-223.161 137,-213.708"/>
<polygon fill="black" stroke="black" points="140.5,-213.509 137,-203.509 133.5,-213.509 140.5,-213.509"/>
</g>
<!-- t2 -->
<g id="node2" class="node"><title>t2</title>
<polygon fill="none" stroke="black" points="54,-112 2.13163e-14,-112 0,-76 54,-76 54,-112"/>
<text text-anchor="middle" x="27" y="-90.4" font-family="Times Roman,serif" font-size="14.00">t2</text>
</g>
<!-- p2 -->
<g id="node7" class="node"><title>p2</title>
<ellipse fill="none" stroke="black" cx="82" cy="-19" rx="27" ry="18.3848"/>
<text text-anchor="middle" x="82" y="-15.4" font-family="Times Roman,serif" font-size="14.00">2</text>
</g>
<!-- t2&#45;&gt;p2 -->
<g id="edge22" class="edge"><title>t2&#45;&gt;p2</title>
<path fill="none" stroke="black" d="M40.314,-75.8446C47.3181,-66.2935 56.0129,-54.4369 63.6466,-44.0274"/>
<polygon fill="black" stroke="black" points="66.6576,-45.8399 69.7489,-35.7061 61.0128,-41.7003 66.6576,-45.8399"/>
</g>
<!-- t3 -->
<g id="node3" class="node"><title>t3</title>
<polygon fill="none" stroke="black" points="164,-112 110,-112 110,-76 164,-76 164,-112"/>
<text text-anchor="middle" x="137" y="-90.4" font-family="Times Roman,serif" font-size="14.00">t3</text>
</g>
<!-- t3&#45;&gt;p2 -->
<g id="edge24" class="edge"><title>t3&#45;&gt;p2</title>
<path fill="none" stroke="black" d="M123.686,-75.8446C116.682,-66.2935 107.987,-54.4369 100.353,-44.0274"/>
<polygon fill="black" stroke="black" points="102.987,-41.7003 94.2511,-35.7061 97.3424,-45.8399 102.987,-41.7003"/>
</g>
<!-- t4 -->
<g id="node4" class="node"><title>t4</title>
<polygon fill="none" stroke="black" points="236,-112 182,-112 182,-76 236,-76 236,-112"/>
<text text-anchor="middle" x="209" y="-90.4" font-family="Times Roman,serif" font-size="14.00">t4</text>
</g>
<!-- t4&#45;&gt;p3 -->
<g id="edge26" class="edge"><title>t4&#45;&gt;p3</title>
<path fill="none" stroke="black" d="M214.514,-112.077C215.831,-124.785 216.095,-142.046 215.308,-156.584"/>
<polygon fill="black" stroke="black" points="211.816,-156.348 214.549,-166.585 218.796,-156.879 211.816,-156.348"/>
</g>
<!-- t5 -->
<g id="node5" class="node"><title>t5</title>
<polygon fill="none" stroke="black" points="308,-112 254,-112 254,-76 308,-76 308,-112"/>
<text text-anchor="middle" x="281" y="-90.4" font-family="Times Roman,serif" font-size="14.00">t5</text>
</g>
<!-- p1 -->
<g id="node6" class="node"><title>p1</title>
<ellipse fill="none" stroke="black" cx="316" cy="-19" rx="27" ry="18.3848"/>
<text text-anchor="middle" x="316" y="-15.4" font-family="Times Roman,serif" font-size="14.00">1</text>
</g>
<!-- t5&#45;&gt;p1 -->
<g id="edge28" class="edge"><title>t5&#45;&gt;p1</title>
<path fill="none" stroke="black" d="M289.473,-75.8446C293.673,-66.8429 298.83,-55.7932 303.476,-45.8372"/>
<polygon fill="black" stroke="black" points="306.669,-47.2714 307.726,-36.7294 300.326,-44.3111 306.669,-47.2714"/>
</g>
<!-- p1&#45;&gt;t1 -->
<g id="edge2" class="edge"><title>p1&#45;&gt;t1</title>
<path fill="none" stroke="black" d="M319.754,-37.406C322.861,-56.5975 325.526,-87.2708 317,-112 300.076,-161.086 284.96,-170.848 245,-204 223.619,-221.738 195.698,-236.032 173.601,-245.739"/>
<polygon fill="black" stroke="black" points="172.039,-242.6 164.215,-249.743 174.786,-249.038 172.039,-242.6"/>
</g>
<!-- p2&#45;&gt;t1 -->
<g id="edge4" class="edge"><title>p2&#45;&gt;t1</title>
<path fill="none" stroke="black" d="M81.1026,-37.7346C80.0764,-71.8517 80.6716,-145.95 101,-204 104.61,-214.308 110.46,-224.637 116.405,-233.566"/>
<polygon fill="black" stroke="black" points="113.695,-235.798 122.302,-241.977 119.427,-231.78 113.695,-235.798"/>
<text text-anchor="middle" x="93" y="-135.4" font-family="Times Roman,serif" font-size="14.00">2</text>
</g>
<!-- p3&#45;&gt;t4 -->
<g id="edge6" class="edge"><title>p3&#45;&gt;t4</title>
<path fill="none" stroke="black" d="M203.451,-166.585C202.166,-153.921 201.912,-136.856 202.69,-122.454"/>
<polygon fill="black" stroke="black" points="206.211,-122.316 203.486,-112.077 199.231,-121.78 206.211,-122.316"/>
</g>
<!-- p3&#45;&gt;t5 -->
<g id="edge8" class="edge"><title>p3&#45;&gt;t5</title>
<path fill="none" stroke="black" d="M221.872,-168.731C232.452,-155.359 247.653,-136.146 259.993,-120.55"/>
<polygon fill="black" stroke="black" points="263.047,-122.332 266.507,-112.318 257.557,-117.988 263.047,-122.332"/>
</g>
<!-- p4&#45;&gt;t2 -->
<g id="edge10" class="edge"><title>p4&#45;&gt;t2</title>
<path fill="none" stroke="black" d="M27,-166.145C27,-153.533 27,-136.705 27,-122.474"/>
<polygon fill="black" stroke="black" points="30.5001,-122.21 27,-112.21 23.5001,-122.21 30.5001,-122.21"/>
</g>
<!-- p5&#45;&gt;t3 -->
<g id="edge12" class="edge"><title>p5&#45;&gt;t3</title>
<path fill="none" stroke="black" d="M137,-166.145C137,-153.533 137,-136.705 137,-122.474"/>
<polygon fill="black" stroke="black" points="140.5,-122.21 137,-112.21 133.5,-122.21 140.5,-122.21"/>
</g>
<!-- p5&#45;&gt;t4 -->
<g id="edge14" class="edge"><title>p5&#45;&gt;t4</title>
<path fill="none" stroke="black" d="M149.872,-168.731C160.452,-155.359 175.653,-136.146 187.993,-120.55"/>
<polygon fill="black" stroke="black" points="191.047,-122.332 194.507,-112.318 185.557,-117.988 191.047,-122.332"/>
</g>
</g>
</svg>
